<?xml version="1.0" standalone="no"?>
<!DOCTYPE svg PUBLIC "-//W3C//DTD SVG 20010904//EN"
 "http://www.w3.org/TR/2001/REC-SVG-20010904/DTD/svg10.dtd">
<svg version="1.0" xmlns="http://www.w3.org/2000/svg"
 width="2084.000000pt" height="2084.000000pt" viewBox="0 0 2084.000000 2084.000000"
 preserveAspectRatio="xMidYMid meet">

<g transform="translate(0.000000,2084.000000) scale(0.100000,-0.100000)"
fill="#EA0523" stroke="none">
<path d="M2640 20829 c-560 -49 -1115 -273 -1560 -629 -134 -108 -332 -306
-440 -440 -361 -451 -581 -1001 -629 -1573 -15 -181 -15 -15363 0 -15544 84
-996 681 -1885 1571 -2337 295 -150 613 -249 931 -291 105 -13 958 -15 7912
-15 6954 0 7807 2 7912 15 826 108 1575 580 2039 1285 225 342 370 717 441
1136 17 105 18 391 18 7979 0 7589 -1 7874 -18 7980 -84 499 -296 976 -607
1365 -108 134 -306 332 -440 440 -451 361 -1002 581 -1573 629 -155 13 -15408
13 -15557 0z m7692 -9200 l9278 -2504 -158 -7 c-86 -4 -3648 -7 -7915 -5
l-7758 2 303 129 c428 183 552 250 749 407 113 90 288 273 366 382 110 156
205 366 244 542 35 156 5 450 -63 612 -133 321 -493 676 -1086 1072 -236 157
-353 228 -746 450 -378 215 -592 328 -1141 604 -442 223 -648 335 -885 483
-214 133 -528 356 -480 341 8 -2 4190 -1131 9292 -2508z"/>
</g>
</svg>
